<svg id="svg" version="1.1" width="400" height="400" xmlns="http://www.w3.org/2000/svg" xmlns:xlink="http://www.w3.org/1999/xlink" style="display: block;"><g id="svgg"><path id="path0" d="M104.640 70.259 L 104.640 77.797 146.480 142.002 C 169.492 177.315,188.365 206.387,188.420 206.608 C 188.476 206.828,168.352 234.483,143.700 268.063 L 98.880 329.118 98.880 336.559 L 98.880 344.000 197.684 344.000 L 296.488 344.000 298.671 304.400 C 299.872 282.620,300.936 263.684,301.035 262.320 L 301.215 259.840 287.487 259.841 L 273.760 259.842 272.832 264.721 C 267.554 292.478,262.216 300.292,246.999 302.538 C 243.792 303.011,152.640 303.364,152.640 302.903 C 152.640 302.828,169.920 280.067,191.040 252.324 L 229.440 201.882 229.426 194.781 L 229.411 187.680 195.220 138.560 L 161.029 89.440 195.795 89.164 C 239.555 88.816,240.858 88.896,247.920 92.366 C 257.109 96.881,263.145 108.507,270.116 135.119 L 271.520 140.478 284.560 140.479 L 297.600 140.480 297.600 101.600 L 297.600 62.720 201.120 62.720 L 104.640 62.720 104.640 70.259 " stroke="none" fill="#ffffff" fill-rule="evenodd"></path><path id="path1" d="M61.760 0.340 C 32.218 2.148,7.494 23.970,1.054 53.920 L 0.160 58.080 0.160 200.320 L 0.160 342.560 1.054 346.720 C 6.868 373.759,26.927 393.833,53.480 399.186 L 57.520 400.000 200.000 400.000 L 342.480 400.000 346.520 399.186 C 374.323 393.581,395.410 371.346,399.503 343.319 C 400.260 338.137,400.260 62.503,399.503 57.321 C 394.917 25.919,369.190 2.267,337.498 0.316 C 331.656 -0.044,67.654 -0.021,61.760 0.340 M297.920 101.760 L 297.920 140.800 284.649 140.800 L 271.378 140.800 270.910 139.120 C 270.653 138.196,269.843 135.208,269.111 132.480 C 263.323 110.910,257.610 98.979,250.880 94.405 C 243.292 89.248,243.030 89.223,197.350 89.344 L 161.260 89.440 195.510 138.612 L 229.760 187.784 229.760 194.836 L 229.760 201.889 204.566 234.945 C 190.710 253.125,173.448 275.776,166.206 285.280 L 153.039 302.560 198.199 302.650 C 249.675 302.753,249.358 302.768,255.840 299.842 C 263.750 296.271,268.024 287.474,272.321 265.920 C 272.865 263.192,273.378 260.636,273.461 260.240 L 273.612 259.520 287.559 259.520 L 301.505 259.520 301.312 261.680 C 301.207 262.868,300.182 281.120,299.037 302.240 C 297.891 323.360,296.873 341.396,296.774 342.320 L 296.594 344.000 197.737 344.000 L 98.880 344.000 98.880 336.339 L 98.880 328.678 143.520 267.886 C 168.072 234.450,188.160 206.944,188.160 206.761 C 188.160 206.579,169.296 177.484,146.240 142.107 L 104.320 77.785 104.320 70.252 L 104.320 62.720 201.120 62.720 L 297.920 62.720 297.920 101.760 " stroke="none" fill="#70ad47" fill-rule="evenodd"></path><path id="path2" d="M63.600 0.226 C 63.996 0.302,64.644 0.302,65.040 0.226 C 65.436 0.150,65.112 0.087,64.320 0.087 C 63.528 0.087,63.204 0.150,63.600 0.226 M334.960 0.226 C 335.356 0.302,336.004 0.302,336.400 0.226 C 336.796 0.150,336.472 0.087,335.680 0.087 C 334.888 0.087,334.564 0.150,334.960 0.226 M297.755 101.760 C 297.755 123.320,297.793 132.140,297.840 121.360 C 297.887 110.580,297.887 92.940,297.840 82.160 C 297.793 71.380,297.755 80.200,297.755 101.760 M182.665 302.960 C 193.282 303.007,210.562 303.007,221.065 302.960 C 231.567 302.913,222.880 302.875,201.760 302.875 C 180.640 302.875,172.047 302.913,182.665 302.960 " stroke="none" fill="#83b85f" fill-rule="evenodd"></path><path id="path3" d="M104.458 70.240 C 104.458 74.464,104.504 76.148,104.559 73.982 C 104.615 71.816,104.614 68.360,104.559 66.302 C 104.503 64.244,104.458 66.016,104.458 70.240 M253.747 96.720 C 254.531 97.556,255.215 98.240,255.267 98.240 C 255.507 98.240,255.253 97.953,253.840 96.627 L 252.320 95.200 253.747 96.720 M276.580 140.720 C 279.540 140.772,284.292 140.772,287.140 140.719 C 289.989 140.666,287.568 140.623,281.760 140.623 C 275.952 140.623,273.621 140.667,276.580 140.720 M229.439 194.655 L 229.599 202.080 229.686 194.902 C 229.733 190.955,229.662 187.613,229.526 187.478 C 229.391 187.342,229.352 190.572,229.439 194.655 M287.257 259.758 C 297.898 259.826,301.105 259.938,301.208 260.243 C 301.283 260.466,301.326 260.429,301.306 260.160 C 301.276 259.741,299.494 259.679,287.356 259.675 L 273.440 259.670 287.257 259.758 M155.280 302.958 C 156.820 303.017,159.340 303.017,160.880 302.958 C 162.420 302.900,161.160 302.852,158.080 302.852 C 155.000 302.852,153.740 302.900,155.280 302.958 M240.724 302.950 C 241.211 303.023,241.931 303.021,242.324 302.945 C 242.718 302.869,242.320 302.809,241.440 302.812 C 240.560 302.814,240.238 302.876,240.724 302.950 " stroke="none" fill="#a8cd8f" fill-rule="evenodd"></path><path id="path4" d="M210.022 89.200 C 214.567 89.250,221.911 89.250,226.342 89.200 C 230.774 89.150,227.056 89.109,218.080 89.109 C 209.104 89.109,205.478 89.150,210.022 89.200 M293.530 140.716 C 294.371 140.782,295.667 140.781,296.410 140.714 C 297.152 140.647,296.464 140.593,294.880 140.594 C 293.296 140.595,292.688 140.649,293.530 140.716 M261.260 296.400 L 260.320 297.440 261.360 296.500 C 261.932 295.983,262.400 295.515,262.400 295.460 C 262.400 295.213,262.136 295.431,261.260 296.400 M380.620 381.200 L 379.680 382.240 380.720 381.300 C 381.689 380.424,381.907 380.160,381.660 380.160 C 381.605 380.160,381.137 380.628,380.620 381.200 " stroke="none" fill="#e1eed9" fill-rule="evenodd"></path></g></svg>